<?xml version="1.0" encoding="iso-8859-1"?>
<!-- Generator: Adobe Illustrator 16.0.0, SVG Export Plug-In . SVG Version: 6.00 Build 0)  -->
<!DOCTYPE svg PUBLIC "-//W3C//DTD SVG 1.1//EN" "http://www.w3.org/Graphics/SVG/1.1/DTD/svg11.dtd">
<svg version="1.1" id="Capa_1" xmlns="http://www.w3.org/2000/svg" xmlns:xlink="http://www.w3.org/1999/xlink" x="0px" y="0px"
	 width="31.971px" height="31.971px" viewBox="0 0 31.971 31.971" style="enable-background:new 0 0 31.971 31.971;"
	 xml:space="preserve">
<g>
	<path d="M29.354,3.528L29.321,0L11.4,3.322l0.018,1.945h-0.002v17.657c-0.935-0.872-2.188-1.412-3.569-1.412
		c-2.888,0.002-5.23,2.342-5.23,5.229c0,2.89,2.342,5.229,5.229,5.229c2.631,0,4.801-1.941,5.169-4.47h0.062V9.212l14.519-2.663
		v12.992c-0.936-0.874-2.188-1.412-3.567-1.412c-2.89,0-5.231,2.34-5.231,5.229c0,2.89,2.342,5.23,5.231,5.23
		c2.629,0,4.799-1.941,5.168-4.471h0.062V3.547L29.354,3.528z M27.596,5.584L13.077,8.248V6.546l14.519-2.691V5.584z"/>
</g>
<g>
</g>
<g>
</g>
<g>
</g>
<g>
</g>
<g>
</g>
<g>
</g>
<g>
</g>
<g>
</g>
<g>
</g>
<g>
</g>
<g>
</g>
<g>
</g>
<g>
</g>
<g>
</g>
<g>
</g>
</svg>
